# xmcd CD database file
#
# Track frame offsets:
#	150
#	5089
#	17263
#	29563
#	40699
#	51111
#	63753
#	74872
#	86598
#	97853
#	117100
#	131098
#	142766
#	153648
#	166755
#	179373
#	188504
#	200443
#	211515
#	223904
#	233778
#
# Disc length: 3291 seconds
#
# Revision: 0
# Processed by: cddbd v1.4PL0 Copyright (c) Steve Scherf et al.
# Submitted via: Feurio! 1.63 - http://www.feurio.com
#
DISCID=180cd915
DTITLE=Jim Reeves - Jim Reeves
DYEAR=1900
DGENRE=
TTITLE0=I´ll always love you
TTITLE1=A letter to my heart
TTITLE2=Hillbilly walz
TTITLE3=Theres´s always me
TTITLE4=The wreck of the number nine
TTITLE5=The gun
TTITLE6=I´m fool to care
TTITLE7=Annabell Lee
TTITLE8=Wagon load of love
TTITLE9=The spell of the Yukon
TTITLE10=The street of Laredo
TTITLE11=Welcome to my world
TTITLE12=Be honest with me
TTITLE13=The white cliffs of Dover
TTITLE14=Bimbo
TTITLE15=I won´t forget you
TTITLE16=Mexican Joe
TTITLE17=Just walking in the rain
TTITLE18=I love you because
TTITLE19=Missing angel
TTITLE20=Danny boy
EXTD=
EXTT0=
EXTT1=
EXTT2=
EXTT3=
EXTT4=
EXTT5=
EXTT6=
EXTT7=
EXTT8=
EXTT9=
EXTT10=
EXTT11=
EXTT12=
EXTT13=
EXTT14=
EXTT15=
EXTT16=
EXTT17=
EXTT18=
EXTT19=
EXTT20=
PLAYORDER=
